 <svg  version="1.0" xmlns="http://www.w3.org/2000/svg"  width="450.000000pt" height="450.000000pt" viewBox="0 0 450.000000 450.000000"  preserveAspectRatio="xMidYMid meet">  <g transform="translate(0.000000,450.000000) scale(0.050000,-0.050000)" fill="#0048ff" stroke="none"> <path d="M3972 8377 c10 -16 4 -20 -17 -12 -22 9 -35 -3 -45 -40 -10 -42 -17 -47 -31 -24 -14 23 -18 19 -19 -15 0 -24 -9 -49 -20 -56 -12 -7 -17 -56 -12 -111 5 -55 3 -99 -5 -99 -9 0 -16 -34 -16 -75 -2 -118 -82 -264 -146 -266 -72 -1 -149 -94 -152 -182 -2 -47 -14 -89 -26 -93 -13 -4 -18 -16 -11 -27 7 -11 -7 -33 -30 -50 -23 -16 -42 -42 -42 -59 0 -16 -22 -38 -50 -48 -30 -11 -50 -35 -50 -58 0 -21 -10 -42 -21 -46 -12 -4 -24 -32 -28 -63 -10 -93 -33 -100 -182 -54 -137 42 -538 80 -459 43 28 -13 -21 -18 -156 -17 -149 0 -214 9 -268 37 -74 38 -186 11 -186 -44 0 -11 -13 -34 -30 -51 -34 -34 -42 -227 -10 -227 11 0 18 -7 16 -15 -8 -31 28 -105 46 -94 10 7 32 -21 49 -60 17 -40 39 -67 50 -60 11 6 18 3 14 -8 -3 -11 9 -32 26 -47 26 -22 29 -78 20 -386 -12 -392 -10 -389 -106 -182 -20 43 -51 90 -70 104 -19 15 -28 27 -20 27 8 1 -1 18 -20 38 -19 20 -41 33 -49 30 -7 -4 -19 1 -26 13 -7 11 3 20 21 20 26 0 24 8 -14 38 -29 24 -52 31 -59 18 -9 -14 -17 -13 -26 1 -15 25 -129 24 -145 -1 -17 -29 -28 -113 -37 -296 -5 -93 -18 -173 -30 -177 -69 -23 -101 -282 -62 -492 12 -65 9 -100 -10 -128 -15 -21 -22 -42 -16 -48 6 -6 -12 -33 -40 -61 -31 -31 -54 -41 -59 -27 -7 16 -10 15 -11 -2 -1 -14 -17 -25 -35 -25 -18 0 -45 -16 -61 -35 -16 -19 -22 -22 -14 -7 9 19 6 23 -9 14 -13 -8 -23 -32 -23 -53 0 -22 -9 -39 -20 -39 -11 0 -20 -22 -20 -50 0 -27 9 -50 20 -50 12 0 16 -23 9 -55 -18 -79 -14 -133 10 -141 35 -12 24 -44 -37 -106 -62 -61 -93 -76 -72 -33 7 14 -10 0 -38 -31 -29 -31 -52 -68 -52 -83 0 -14 -13 -37 -30 -51 -33 -28 -41 -140 -10 -140 11 0 20 -18 20 -40 0 -23 13 -40 31 -40 17 0 26 -8 20 -18 -17 -29 38 -62 88 -52 26 5 41 3 35 -3 -7 -7 20 -34 60 -61 128 -87 326 -275 326 -310 0 -18 16 -45 36 -60 20 -14 43 -42 50 -62 8 -20 23 -31 34 -24 11 7 20 0 20 -16 0 -15 18 -48 39 -73 33 -38 35 -50 13 -72 -15 -15 -24 -58 -21 -98 3 -39 -3 -71 -14 -71 -11 0 -13 -11 -5 -25 8 -14 7 -19 -1 -11 -20 18 -131 -38 -131 -65 0 -11 -21 -28 -48 -38 -26 -10 -87 -66 -135 -123 -48 -58 -135 -151 -194 -207 -186 -176 -234 -375 -135 -572 17 -36 32 -73 32 -83 0 -84 280 -396 356 -396 13 0 24 -8 24 -18 0 -22 157 -62 249 -62 145 0 414 147 377 206 -7 11 -2 14 9 7 26 -16 94 75 112 150 20 85 56 81 314 -36 296 -133 639 -250 752 -254 46 -2 73 -10 60 -18 -13 -8 -18 -15 -12 -15 6 0 132 -26 280 -59 537 -117 861 -144 1169 -100 418 60 1084 242 1514 412 261 104 392 122 347 49 -29 -48 184 -252 315 -301 102 -38 389 -21 363 21 -6 10 16 18 50 18 37 0 67 12 74 30 6 16 18 26 26 21 17 -11 174 145 213 212 82 141 97 194 104 374 8 189 -39 403 -76 343 -12 -19 -32 5 -43 53 -4 18 -223 227 -237 227 -11 0 -21 9 -22 20 -2 11 -4 28 -5 38 -4 27 -33 52 -59 52 -60 0 -61 104 -2 177 32 40 59 82 61 93 1 11 3 36 5 55 2 26 7 28 19 9 22 -34 83 155 83 258 0 81 -53 238 -80 238 -27 0 -42 64 -21 89 12 14 14 32 6 41 -8 9 -4 10 10 2 15 -9 51 6 87 37 34 28 55 51 48 51 -7 0 13 22 45 49 32 27 79 92 105 145 25 53 54 112 63 131 50 103 -4 615 -65 615 -10 0 -18 18 -18 39 0 47 -41 141 -61 141 -8 0 -24 25 -35 55 -31 85 -154 268 -170 252 -8 -7 -14 6 -14 29 0 24 -23 58 -51 76 -28 19 -47 44 -43 56 4 12 -11 54 -35 92 -81 133 -94 186 -93 369 1 173 -12 237 -49 233 -10 -1 -17 18 -16 43 5 174 9 203 24 180 17 -27 61 34 70 98 2 17 20 55 39 84 19 29 26 53 15 53 -11 0 -15 14 -8 30 6 17 22 30 35 30 15 0 23 31 22 85 -1 59 -11 85 -30 85 -16 0 -33 22 -40 49 -30 128 -211 141 -331 24 -48 -46 -74 -56 -135 -51 -44 4 -71 -1 -64 -13 13 -19 -13 -26 -75 -20 -19 2 -35 -5 -35 -15 0 -57 -185 -23 -269 51 -83 73 -352 177 -433 167 -18 -2 -46 17 -63 43 -16 25 -50 48 -74 49 -51 4 -105 43 -91 66 13 22 -212 168 -267 174 -25 2 -67 26 -93 54 -25 27 -53 43 -61 36 -9 -8 -9 -4 -2 9 17 31 -85 152 -117 140 -14 -6 -43 14 -64 44 -50 67 -203 116 -263 85 -22 -12 -56 -16 -75 -9 -24 10 -30 7 -19 -11 19 -32 -48 -84 -92 -71 -47 15 -172 -139 -194 -239 -10 -45 -20 -67 -21 -48 -1 21 -15 31 -38 27 -20 -4 -57 15 -83 42 -26 27 -35 46 -20 43 30 -7 29 275 -2 356 -9 24 -11 49 -4 56 6 7 1 12 -12 12 -12 0 -23 23 -23 51 0 29 -14 65 -30 82 -17 17 -25 38 -19 49 6 10 4 18 -6 18 -22 0 -87 111 -74 127 5 7 4 9 -3 5 -23 -17 -128 33 -128 60 0 15 -14 28 -31 28 -19 0 -26 -9 -17 -23z m86 -168 c96 -141 147 -342 132 -532 -15 -203 10 -272 151 -411 l85 -84 -167 -81 c-166 -81 -293 -103 -357 -63 -42 27 -12 77 56 92 79 17 94 42 41 70 -86 46 -355 -47 -437 -152 -49 -62 -55 -145 -12 -159 102 -32 99 -28 58 -59 -125 -94 -295 81 -220 226 55 106 236 222 346 224 78 0 67 33 -35 98 -100 66 -128 127 -67 150 60 23 199 12 245 -20 60 -42 76 -22 47 59 -32 88 -30 182 6 301 33 108 40 326 12 370 -67 106 42 79 116 -29z m932 -540 c94 -40 234 -132 221 -145 -6 -6 -85 -12 -176 -13 -229 -4 -345 -76 -414 -257 -27 -72 -61 -52 -61 36 0 238 246 455 430 379z m350 -296 c61 -31 151 -90 200 -131 50 -41 117 -92 150 -113 33 -21 75 -53 94 -70 95 -85 292 -159 424 -159 151 0 169 -24 48 -65 -124 -41 -114 -66 44 -105 224 -55 422 -10 511 117 47 67 76 4 35 -76 -104 -201 -415 -259 -766 -143 -257 85 -224 65 -746 466 -93 71 -231 126 -318 126 -61 0 -75 28 -24 48 95 37 300 -31 448 -148 140 -110 167 -68 30 47 -230 192 -512 251 -631 132 -69 -69 -3 -220 69 -160 44 35 132 -2 132 -56 0 -160 -278 -60 -312 112 -45 223 315 327 612 178z m-820 -309 c0 -54 439 -317 710 -425 147 -59 228 -85 530 -171 187 -54 450 -84 566 -64 286 47 300 19 297 -601 -10 -1772 -563 -2735 -1893 -3294 -294 -123 -437 -93 -915 196 -998 603 -1393 1416 -1455 2998 -12 287 -29 537 -40 556 -33 63 74 142 202 150 60 4 150 13 201 21 82 12 96 9 125 -33 45 -64 40 -80 -23 -75 -30 2 -91 2 -135 0 l-80 -4 68 -54 c175 -137 250 -262 215 -353 -34 -88 -134 5 -255 239 -46 88 -86 163 -88 166 -2 3 -27 -4 -55 -14 l-50 -19 8 -267 c61 -1900 431 -2678 1577 -3315 303 -169 637 -251 665 -165 4 12 19 17 33 12 14 -5 37 4 51 21 14 17 36 31 48 31 34 0 262 111 401 195 415 252 767 640 975 1075 37 77 72 145 78 150 5 6 35 91 66 190 31 99 64 203 74 230 92 256 204 1597 152 1806 -20 78 -101 110 -314 122 -182 11 -618 86 -639 110 -5 7 -19 12 -30 13 -34 1 -212 62 -380 129 -339 136 -418 153 -236 50 357 -201 945 -356 1426 -375 l110 -5 -6 -280 c-38 -1834 -447 -2735 -1477 -3256 -168 -85 -509 -234 -536 -234 -6 0 -11 53 -11 118 l0 119 -105 34 c-402 132 -1005 568 -1214 878 -230 340 -348 665 -443 1211 -54 316 -55 1040 0 1040 29 0 222 -209 222 -240 0 -21 24 -41 63 -52 40 -12 75 -41 95 -80 20 -39 62 -74 115 -96 l84 -35 -46 -103 c-371 -842 150 -1776 1069 -1916 l160 -25 0 -308 0 -308 64 14 c728 160 1485 1007 1647 1845 76 392 138 1046 126 1324 l-7 150 -130 25 c-724 137 -1330 345 -1318 451 12 100 -78 200 -285 321 l-93 55 -107 -68 c-270 -172 -636 -334 -659 -291 -25 47 1 88 69 109 159 49 648 321 670 372 9 21 63 21 63 0z m760 -79 c0 -15 -11 -22 -25 -15 -14 8 15 -22 64 -65 107 -96 80 -116 -73 -56 -114 44 -136 88 -66 137 51 35 100 35 100 -1z m-3123 -67 c51 -100 126 -144 260 -154 116 -8 187 23 109 48 -73 23 -131 58 -141 84 -16 41 7 50 58 22 26 -14 151 -32 277 -40 150 -10 271 -29 348 -56 68 -24 168 -42 235 -42 203 0 122 -63 -129 -102 -79 -12 -194 -43 -256 -69 -292 -122 -581 -100 -755 58 -87 80 -133 255 -79 309 28 28 30 26 73 -58z m5063 2 c88 -88 22 -183 -159 -230 -69 -18 -130 -28 -135 -22 -19 18 133 245 178 267 64 31 71 30 116 -15z m-2740 -488 l0 -328 -123 -14 c-68 -8 -149 -22 -180 -31 -66 -19 -97 4 -157 118 -66 123 -140 202 -140 150 0 -98 -102 -68 -128 38 -26 109 54 173 95 76 l25 -60 213 107 c117 59 251 143 299 189 47 45 88 83 91 83 3 0 5 -148 5 -328z m2720 169 c0 -10 -18 -24 -40 -31 -94 -30 -181 -205 -183 -367 -1 -114 10 -120 84 -45 34 34 71 57 81 51 28 -17 21 -69 -10 -81 -46 -18 -96 -165 -80 -236 17 -82 196 -437 236 -471 18 -14 32 -35 32 -46 0 -12 54 -105 119 -207 309 -481 338 -782 99 -1025 -124 -126 -199 -156 -418 -167 -184 -10 -333 -56 -370 -116 -25 -40 -53 -19 -46 35 4 36 28 68 70 95 76 47 77 53 27 159 -115 244 56 476 302 410 112 -30 133 -167 32 -213 -67 -31 -193 28 -135 64 37 23 21 50 -29 50 -109 0 -170 -156 -100 -256 73 -103 219 -131 359 -67 73 34 249 200 251 238 0 8 9 56 19 105 30 147 -10 293 -146 535 -167 300 -283 538 -313 650 -15 54 -38 95 -54 95 -67 0 7 -275 154 -568 129 -259 162 -451 89 -512 -26 -21 -30 -15 -30 47 0 128 -41 267 -114 386 -390 636 -444 1066 -175 1385 80 95 289 170 289 103z m-3659 -42 c50 -26 50 -59 0 -59 -70 0 -62 -161 11 -214 19 -14 29 -31 22 -38 -6 -7 1 -26 17 -42 59 -59 -51 -82 -141 -30 -11 6 42 -53 119 -132 143 -148 163 -164 144 -115 -8 20 3 27 38 25 46 -4 249 -193 249 -233 0 -10 59 -82 132 -161 72 -79 126 -149 120 -155 -16 -16 -166 105 -258 208 -41 47 -93 90 -115 97 -21 7 -39 26 -39 42 0 43 -98 142 -115 118 -108 -149 -189 -142 -267 25 -22 47 -52 85 -68 85 -15 0 -30 25 -34 55 -8 60 20 145 47 145 29 0 18 50 -18 83 -121 109 -127 145 -35 200 38 22 65 49 59 59 -7 10 9 27 35 37 60 24 53 24 97 0z m-330 -88 c47 -35 25 -61 -66 -78 -52 -10 -68 -4 -87 30 -38 72 73 107 153 48z m1553 -65 c-20 -8 -15 -23 18 -58 50 -54 42 -78 -20 -58 -62 19 -56 133 6 128 12 0 10 -6 -4 -12z m-1574 -174 c26 -58 59 -119 74 -134 47 -49 77 -134 51 -143 -90 -30 -368 306 -305 369 52 51 135 9 180 -92z m608 -20 c69 -91 182 -187 182 -154 0 11 -9 25 -20 32 -11 7 -20 23 -19 36 0 13 9 8 21 -11 11 -19 30 -35 43 -35 29 0 135 -101 135 -129 0 -11 41 -79 90 -150 109 -155 120 -226 18 -111 -40 44 -98 109 -130 144 -32 36 -58 70 -58 76 0 6 -14 33 -31 59 l-32 48 -68 -40 -69 -41 -66 57 c-130 113 -208 275 -139 293 68 18 78 13 143 -74z m-1972 -172 c234 -367 258 -586 133 -1240 -34 -179 -41 -275 -34 -433 15 -298 56 -351 84 -109 24 200 94 272 208 214 124 -65 203 -298 135 -401 -47 -72 -76 -64 -61 16 16 89 -67 196 -125 161 -127 -77 -111 -322 42 -623 75 -149 107 -146 73 5 -21 94 -1 293 31 304 14 5 26 -44 34 -132 22 -262 209 -524 438 -611 213 -81 130 -114 -97 -39 -416 139 -569 315 -753 868 -117 353 -133 527 -73 840 51 270 75 620 42 620 -12 0 -25 -29 -31 -65 -17 -125 -51 -306 -83 -445 -50 -218 -30 -540 51 -840 88 -327 92 -360 32 -247 -28 51 -84 199 -125 330 l-74 237 5 350 c2 193 6 422 8 510 3 132 -4 175 -41 246 -25 47 -45 95 -45 108 0 38 84 -50 113 -119 54 -127 87 -50 87 202 0 134 -61 350 -105 370 -22 9 3 43 31 43 13 -1 58 -54 100 -120z m1256 33 c28 -25 68 -72 88 -104 45 -73 289 -297 305 -281 6 6 -4 29 -23 50 -26 29 -29 42 -10 53 14 9 19 7 11 -6 -7 -11 9 -26 35 -33 26 -6 80 -48 119 -92 40 -44 80 -80 89 -80 9 0 36 -38 61 -85 79 -150 97 -177 165 -247 68 -70 132 -92 111 -38 -12 31 10 41 35 15 8 -8 104 -11 213 -8 l199 6 0 -592 c0 -595 -4 -624 -70 -551 -20 22 -48 40 -63 40 -49 0 -28 -55 43 -109 146 -111 67 -191 -187 -191 -154 0 -166 3 -140 33 24 30 22 32 -28 20 -63 -16 -80 42 -25 87 40 34 38 60 -6 60 -20 0 -46 10 -59 23 -16 16 -36 11 -76 -20 -76 -60 -96 -55 -161 42 -32 47 -71 95 -87 108 -24 18 -25 33 -7 73 13 27 18 56 11 63 -7 7 -16 37 -20 67 -3 30 -15 72 -27 95 -16 31 -11 66 21 147 23 59 37 124 30 144 -8 26 -2 38 20 38 17 0 31 -14 31 -32 0 -25 12 -29 55 -19 80 20 104 51 39 51 -30 0 -54 8 -54 19 0 10 -20 21 -45 25 -25 4 -42 19 -39 34 3 14 -5 38 -17 53 -25 31 68 89 142 89 37 0 40 5 19 30 -36 44 -87 37 -140 -20 -26 -27 -58 -50 -72 -50 -37 0 -44 66 -10 93 26 19 26 26 -4 56 -19 19 -34 60 -34 93 0 49 -17 70 -105 126 -129 83 -206 163 -176 181 12 8 16 22 10 33 -6 10 -19 14 -28 8 -9 -5 -22 3 -28 19 -20 54 43 10 117 -81 40 -48 86 -88 102 -88 16 0 34 -13 41 -30 21 -55 47 -31 47 42 0 77 12 81 130 39 26 -9 17 6 -27 46 -37 33 -62 68 -55 79 6 11 -3 31 -20 46 -30 25 -146 -74 -147 -127 -2 -34 -61 -12 -61 22 0 21 -50 91 -112 155 -62 65 -135 147 -162 183 -28 36 -63 65 -78 65 -44 0 -69 125 -32 155 46 36 87 30 146 -22z m2330 11 c-10 -17 600 -176 643 -167 29 6 29 12 22 -327 -2 -143 -4 -294 -3 -335 1 -41 -6 -70 -16 -64 -17 11 -27 -47 -19 -106 1 -14 -5 -25 -14 -25 -9 0 -18 22 -20 48 -5 61 -221 492 -246 492 -11 0 -19 14 -19 30 0 17 -7 30 -16 30 -8 0 -31 27 -51 60 -20 34 -44 56 -54 49 -11 -6 -19 -2 -19 10 0 27 -159 201 -183 201 -49 0 -74 50 -42 85 32 36 55 48 37 19z m-519 -73 c1127 -356 1260 -1951 204 -2458 -187 -90 -413 -153 -546 -153 l-71 0 0 127 0 127 85 25 c163 48 209 101 88 101 -139 0 -173 27 -173 138 0 100 91 222 142 191 23 -15 4 -48 -56 -95 -126 -101 -48 -189 169 -191 146 -2 212 18 140 42 -14 5 -2 5 25 1 100 -15 132 37 69 111 -76 91 -36 137 48 56 91 -87 255 -26 252 94 -1 39 14 67 46 88 26 17 43 42 38 55 -5 13 -2 36 7 51 10 16 5 50 -13 85 -27 52 -27 61 2 92 37 42 40 82 6 82 -17 1 -16 7 4 19 25 16 23 25 -14 57 -24 21 -38 44 -31 51 7 7 3 13 -8 13 -40 0 -42 77 -4 112 21 19 38 46 38 60 0 14 20 28 45 32 103 15 -130 128 -245 118 -26 -2 -26 -5 -1 -21 36 -23 27 -34 -44 -52 -70 -17 -75 30 -11 90 55 52 178 42 337 -27 24 -10 30 4 31 73 1 47 12 145 25 219 44 260 -10 258 -407 -19 -161 -112 -190 -123 -190 -74 0 20 -9 26 -25 16 -37 -23 -91 -26 -240 -13 l-135 11 0 420 0 421 125 -12 c69 -6 199 -35 288 -63z m1908 -606 c38 -117 97 -226 181 -337 93 -121 138 -300 97 -386 l-24 -52 -21 50 c-52 124 -118 252 -140 270 -96 82 -154 232 -154 403 0 143 25 164 61 52z m-1381 -25 c0 -95 -48 -221 -79 -208 -17 7 -69 22 -116 32 -104 23 -104 30 -11 106 142 116 206 138 206 70z m-271 -198 c12 -20 -87 -91 -104 -74 -13 13 53 92 77 92 9 0 21 -8 27 -18z m-2909 -227 c0 -40 -22 -45 -55 -12 -16 16 -16 32 1 59 25 40 53 16 54 -47z m2615 19 c14 -1 20 -5 15 -11 -6 -5 4 -25 22 -45 26 -29 59 -156 34 -130 -5 5 -40 -4 -77 -20 -118 -49 -129 -41 -129 89 0 131 9 149 69 130 22 -7 52 -13 66 -13z m436 -33 c-15 -23 -111 -39 -111 -18 0 22 84 56 105 43 9 -5 11 -16 6 -25z m-1871 -137 c0 -41 -9 -87 -20 -104 -14 -21 -19 4 -20 86 0 73 8 112 20 104 11 -7 20 -46 20 -86z m1782 25 c-49 -28 -98 -47 -110 -43 -31 11 109 94 158 94 27 0 12 -16 -48 -51z m-3786 -46 c5 -32 -4 -43 -33 -43 -53 0 -73 34 -42 72 33 39 67 26 75 -29z m172 4 c16 -40 -21 -87 -68 -87 -41 0 -64 45 -47 90 15 40 100 38 115 -3z m580 17 c17 -28 -23 -70 -56 -58 -45 18 -40 74 7 74 21 0 43 -7 49 -16z m4652 -86 c0 -20 -9 -41 -20 -48 -39 -24 -120 -31 -120 -10 0 11 14 20 30 20 21 0 30 21 30 73 0 72 1 73 40 37 22 -20 40 -52 40 -72z m-4570 -6 c46 -33 12 -92 -53 -92 -48 0 -69 51 -37 90 31 37 42 37 90 2z m-134 -74 c5 -39 -4 -56 -33 -63 -45 -12 -83 18 -83 66 0 81 107 78 116 -3z m-663 -10 c16 -41 -37 -93 -79 -77 -34 13 -46 70 -21 96 25 25 88 13 100 -19z m164 -66 c8 -60 -22 -90 -75 -73 -47 15 -55 70 -17 108 36 36 84 19 92 -35z m3423 17 c0 -108 -133 -199 -291 -199 -107 0 -111 48 -12 139 l53 48 6 -63 c9 -86 35 -80 84 16 40 78 160 122 160 59z m-3412 -271 c61 -23 31 -43 -79 -52 -172 -14 -176 -36 -34 -181 67 -69 170 -188 228 -265 58 -77 151 -194 206 -261 56 -66 132 -159 169 -205 128 -160 415 -324 567 -324 73 0 70 -33 -5 -50 -73 -16 -245 32 -403 112 -147 74 -227 75 -301 4 -30 -29 -61 -47 -68 -40 -27 26 16 115 80 166 l67 54 -144 172 c-79 95 -173 213 -209 262 -173 243 -372 393 -495 373 -127 -20 -41 131 123 216 60 31 238 42 298 19z m4961 -249 c-6 -10 -19 -57 -28 -104 l-17 -85 -2 102 c-1 56 4 107 11 114 18 18 50 -5 36 -27z m-90 -220 c-13 -8 -19 -23 -13 -33 6 -9 -13 -18 -42 -20 -30 -1 -38 3 -19 8 19 5 35 24 35 43 0 19 11 59 25 89 l25 53 6 -62 c4 -35 -4 -69 -17 -78z m-3909 -18 c-5 -10 17 -68 50 -131 33 -63 60 -126 60 -140 0 -15 11 -31 25 -37 17 -7 15 -10 -6 -11 -31 -2 -124 94 -136 141 -3 15 -14 31 -24 37 -9 6 -9 24 2 41 27 43 23 59 -12 46 -26 -10 -27 -4 -7 40 13 28 32 47 41 41 10 -6 13 -18 7 -27z m1890 -81 c0 -69 -113 -87 -189 -30 -50 39 -30 55 85 72 52 7 96 14 99 15 3 2 5 -24 5 -57z m2774 10 c311 -218 6 -729 -436 -730 -157 0 -215 18 -419 133 -228 128 -340 110 -471 -77 -147 -210 -169 -368 -51 -363 69 3 163 73 163 120 0 15 9 27 20 27 50 0 13 -93 -68 -171 -201 -193 -365 -101 -260 145 108 251 143 313 230 398 124 122 227 138 419 62 314 -124 601 -66 770 156 113 147 59 356 -55 216 -185 -226 -242 -261 -406 -247 -178 15 -268 160 -161 260 62 58 106 37 62 -30 -38 -59 -38 -59 0 -98 82 -81 250 -28 407 129 108 108 175 126 256 70z m-4457 -322 l24 -51 -61 43 c-70 50 -74 60 -23 60 20 0 47 -23 60 -52z m2201 -220 c-13 -16 -36 -28 -51 -28 -16 0 -73 -23 -128 -50 l-99 -51 0 50 c0 41 12 52 73 63 40 7 95 25 123 39 62 32 116 17 82 -23z m-1918 -108 c-20 -12 255 -280 306 -298 13 -5 35 -24 48 -43 14 -19 70 -63 125 -99 170 -109 135 -126 -105 -52 -85 26 -175 44 -200 38 -31 -7 -36 -4 -17 9 19 14 1 26 -66 43 -50 12 -150 50 -222 82 -71 33 -139 60 -150 60 -29 0 -23 52 11 80 17 14 30 37 30 52 0 16 13 28 29 28 17 0 49 26 72 57 29 40 59 56 101 56 33 0 50 -6 38 -13z m3120 -78 c-45 -13 -41 -16 35 -29 142 -23 87 -133 -66 -133 -68 0 -114 92 -64 129 19 14 29 31 21 38 -7 7 18 12 56 11 61 -2 63 -3 18 -16z m-3898 -204 c70 -23 151 -54 178 -70 276 -152 1030 -410 1461 -500 358 -75 888 -53 1319 54 333 83 778 236 1063 366 460 208 655 234 921 123 167 -70 256 -579 133 -764 -113 -171 -352 -163 -382 13 -7 44 -10 45 -24 14 -44 -98 105 -208 249 -184 199 34 299 273 232 555 l-27 116 93 -53 c162 -93 199 -296 93 -507 -161 -317 -622 -373 -759 -93 -65 132 77 306 191 235 20 -13 51 -23 68 -23 25 0 29 -13 20 -58 -12 -50 -6 -59 40 -70 146 -37 202 125 77 221 -109 83 -266 78 -488 -17 -616 -262 -614 -262 -1192 -435 -447 -134 -1026 -215 -1258 -177 -652 108 -862 155 -1220 270 -183 59 -602 231 -696 286 -232 135 -536 181 -643 97 -141 -111 -91 -282 72 -246 58 12 59 14 25 51 -46 51 -12 92 48 60 22 -12 68 -16 102 -9 169 33 165 -193 -4 -308 -254 -172 -591 -24 -692 305 -86 277 -74 305 193 436 79 39 85 48 86 123 1 192 396 295 721 189z m3218 -177 c0 -21 -84 -58 -128 -56 -33 1 -30 8 18 47 51 40 110 45 110 9z"/> <path d="M3554 5405 c-7 -11 24 -262 34 -278 1 -2 50 9 109 24 104 27 109 26 172 -22 36 -27 75 -49 88 -49 50 0 18 55 -72 125 -52 41 -134 106 -183 145 -85 68 -131 85 -148 55z"/> <path d="M3706 4940 c-6 -22 -19 -40 -30 -40 -10 0 -13 -9 -6 -20 28 -45 147 -23 135 25 -20 78 -82 100 -99 35z"/> <path d="M3915 4586 c-42 -73 127 -207 272 -215 135 -8 148 22 52 124 -71 75 -99 69 -99 -20 0 -77 -38 -50 -72 51 -21 63 -128 105 -153 60z"/> <path d="M2043 2768 c-36 -25 -39 -76 -11 -165 12 -39 68 10 68 59 0 21 14 38 30 38 43 0 38 -20 -43 -189 -80 -167 -80 -172 -5 -158 45 9 56 29 91 164 36 138 86 200 71 88 -8 -63 51 -59 80 6 29 63 13 80 -132 139 -95 38 -116 41 -149 18z"/> <path d="M6595 2699 c-31 -19 -29 -27 24 -101 90 -124 113 -211 69 -260 -60 -66 -5 -93 75 -36 207 144 215 213 41 332 -134 91 -153 97 -209 65z m223 -187 c19 -22 19 -40 3 -71 -31 -56 -54 -51 -67 14 -6 30 -18 72 -26 92 -16 44 45 20 90 -35z"/> <path d="M2343 2603 c-13 -43 -38 -84 -55 -91 -20 -8 -27 -25 -19 -45 7 -20 -9 -65 -40 -112 -29 -43 -48 -83 -42 -89 23 -23 125 49 153 109 61 132 141 68 82 -66 -47 -106 -44 -122 16 -90 65 35 134 317 91 376 -23 32 -27 29 -39 -25 -25 -111 -26 -113 -69 -91 -34 18 -36 29 -17 83 17 49 15 68 -8 91 -26 25 -32 19 -53 -50z"/> <path d="M2580 2564 c0 -9 9 -25 21 -37 25 -25 4 -127 -25 -127 -11 0 -15 -13 -10 -28 6 -15 -7 -65 -30 -110 -55 -112 -27 -153 75 -110 37 15 94 28 127 28 33 0 66 10 73 21 18 30 -53 81 -96 69 -19 -6 -53 -16 -75 -22 -35 -11 -38 -7 -23 33 13 37 32 47 94 48 59 1 80 10 85 37 6 32 -2 35 -64 23 -65 -12 -72 -9 -72 30 0 38 8 41 68 30 74 -14 152 3 152 32 0 11 -20 19 -45 19 -25 1 -84 19 -132 40 -95 43 -123 49 -123 24z"/> <path d="M6300 2569 c0 -6 23 -56 52 -112 28 -57 56 -150 62 -209 l11 -106 77 39 c42 21 95 39 117 39 56 0 44 51 -50 195 -2 3 -18 0 -36 -7 -41 -15 -42 -55 -3 -88 39 -32 38 -53 -3 -68 -44 -17 -45 -15 -69 128 -25 160 -47 200 -109 200 -27 0 -49 -5 -49 -11z"/> <path d="M6210 2520 c-16 -26 7 -100 30 -100 29 0 43 38 30 80 -14 43 -40 52 -60 20z"/> <path d="M1521 2319 c-31 -224 -18 -301 61 -367 149 -126 401 -97 396 45 l-1 53 -20 -54 c-41 -111 -256 -114 -358 -4 -47 49 -49 62 -43 280 7 275 -2 288 -35 47z"/> <path d="M6076 2449 c-7 -7 4 -50 25 -96 40 -88 52 -262 20 -282 -36 -22 -86 89 -100 219 -15 153 -22 162 -80 115 l-44 -36 44 -140 c69 -218 175 -294 251 -179 33 51 5 390 -34 390 -8 0 -27 5 -42 11 -16 5 -34 5 -40 -2z"/> <path d="M6253 2405 c-14 -23 81 -293 106 -301 28 -10 27 13 -11 177 -28 127 -64 173 -95 124z"/> <path d="M3074 2309 c-29 -60 -40 -67 -73 -50 -82 45 -110 6 -46 -64 33 -37 32 -41 -30 -97 -81 -72 -81 -82 0 -74 51 5 71 20 94 71 37 84 89 89 71 6 -10 -47 -4 -63 31 -81 32 -17 37 -30 21 -46 -38 -38 -25 -48 69 -59 54 -6 110 -28 137 -53 24 -23 65 -42 89 -42 24 0 77 -13 116 -30 40 -16 74 -30 77 -30 27 0 3 218 -24 229 -42 16 -63 -18 -51 -80 8 -42 2 -49 -43 -49 -63 0 -63 -5 -4 102 63 113 85 228 52 268 -38 46 -80 -1 -80 -89 0 -82 -53 -254 -84 -273 -13 -8 -18 26 -13 95 6 98 3 108 -38 113 -38 6 -45 -2 -45 -55 0 -52 -8 -61 -50 -61 l-49 0 57 115 c81 164 89 212 42 255 -46 42 -46 42 -81 -155 -36 -203 -64 -191 -51 23 12 207 -27 253 -94 111z"/> <path d="M5652 2302 c-136 -142 36 -478 187 -366 35 26 53 60 57 111 4 40 15 73 25 73 11 0 19 8 19 19 0 19 -194 13 -214 -7 -20 -19 37 -72 78 -72 52 0 35 -48 -19 -56 -31 -5 -52 11 -75 56 -40 77 -34 194 10 182 103 -26 117 -24 139 16 18 33 17 44 -3 49 -14 4 -55 16 -89 28 -57 18 -69 15 -115 -33z"/> <path d="M5209 2151 c-51 -122 -40 -198 26 -182 127 31 135 27 141 -64 7 -96 -24 -114 -60 -34 -27 60 -83 57 -92 -4 -12 -86 122 -137 184 -69 97 107 53 273 -67 252 -82 -14 -110 4 -80 51 15 24 25 25 59 3 23 -14 50 -20 61 -13 29 18 23 69 -9 69 -15 0 -38 14 -52 30 -40 49 -80 35 -111 -39z"/> <path d="M3691 2182 c-7 -12 1 -28 18 -34 34 -14 44 -128 11 -128 -12 0 -16 -21 -9 -47 7 -26 -2 -80 -18 -119 -43 -104 -5 -131 105 -75 44 22 99 41 121 41 27 0 41 13 41 38 0 52 -57 69 -112 32 -65 -42 -84 -38 -73 19 7 40 23 50 82 55 49 4 73 16 73 36 0 19 -15 27 -40 23 -22 -4 -49 -8 -60 -10 -11 -2 -20 15 -20 37 0 33 11 39 66 33 61 -6 124 23 124 57 0 8 -47 20 -105 26 -58 7 -124 18 -148 25 -23 7 -49 3 -56 -9z"/> <path d="M4954 2146 c-114 -10 -166 -76 -107 -136 18 -18 33 -41 33 -51 0 -11 14 -19 32 -19 23 0 29 16 25 63 -7 68 30 101 51 46 7 -18 13 -104 14 -191 2 -167 5 -174 66 -128 38 29 38 34 5 185 -39 182 -39 185 -14 185 10 0 21 -18 25 -41 10 -65 46 -45 46 26 0 72 -7 74 -176 61z"/> <path d="M4000 2092 c0 -15 21 -66 48 -112 45 -79 46 -89 21 -185 -33 -122 -22 -147 42 -100 37 27 48 54 48 120 1 68 15 100 71 162 38 42 63 83 56 90 -27 27 -108 12 -118 -22 -37 -115 -42 -118 -66 -32 -12 46 -37 88 -54 95 -44 17 -48 16 -48 -16z"/> <path d="M4711 2077 c-5 -15 -12 -54 -15 -87 -5 -45 -17 -62 -51 -66 -56 -8 -59 -64 -5 -78 48 -13 49 -26 11 -117 -30 -72 -18 -85 50 -48 29 15 39 42 39 101 0 86 44 104 56 23 3 -22 21 -45 40 -50 74 -19 78 7 19 121 -33 63 -66 136 -74 163 -15 55 -56 77 -70 38z"/> <path d="M4348 2030 c-45 -68 -45 -271 -1 -339 61 -93 185 -57 222 64 19 61 -20 58 -61 -5 -70 -106 -147 4 -107 153 24 89 31 92 92 34 38 -35 51 -38 76 -17 45 36 38 70 -19 96 -27 13 -50 32 -50 44 0 44 -119 21 -152 -30z"/> </g> </svg> 