 <svg  version="1.0" xmlns="http://www.w3.org/2000/svg"  width="300.000000pt" height="300.000000pt" viewBox="0 0 300.000000 300.000000"  preserveAspectRatio="xMidYMid meet">  <g transform="translate(0.000000,300.000000) scale(0.100000,-0.100000)" fill="#ffffff" stroke="none"> <path d="M1344 2751 c32 -35 57 -120 55 -185 -2 -72 11 -109 51 -146 l29 -27 -57 -27 c-37 -18 -70 -26 -92 -24 -41 4 -51 25 -16 34 37 9 32 24 -6 24 -48 -1 -116 -35 -130 -65 -13 -28 -10 -34 19 -39 16 -3 19 1 15 23 -3 21 2 30 22 40 23 13 27 12 51 -18 15 -17 33 -31 41 -31 29 0 12 -19 -40 -44 -55 -27 -66 -40 -66 -79 l0 -21 -20 22 c-24 25 -56 28 -84 7 -23 -17 -46 -20 -46 -5 0 6 6 10 14 10 7 0 26 10 41 22 16 12 37 23 47 23 11 1 26 9 35 18 15 15 14 16 -19 11 -31 -5 -38 -3 -52 19 -32 48 4 101 88 130 l36 12 -35 28 -36 28 6 -24 c5 -20 0 -29 -27 -48 -41 -29 -45 -35 -59 -84 -15 -55 -14 -54 -56 -44 -90 22 -159 29 -198 20 -39 -9 -38 -9 26 -10 37 -1 91 -10 124 -21 32 -11 75 -20 97 -20 49 0 49 -17 1 -26 -62 -10 -105 -22 -153 -39 -66 -25 -136 -24 -191 3 -46 23 -63 46 -72 102 -3 15 -5 7 -6 -18 -1 -37 4 -49 32 -75 18 -18 41 -37 51 -42 18 -10 18 -13 3 -35 -13 -22 -14 -48 -7 -209 5 -100 12 -215 16 -255 5 -39 7 -77 5 -84 -1 -8 2 -19 7 -25 11 -13 26 -87 18 -87 -3 0 -17 11 -31 24 -22 20 -25 28 -16 45 6 11 11 22 11 25 0 11 -52 56 -65 56 -17 0 -19 50 -7 130 8 50 -7 146 -31 200 -8 19 -29 51 -46 70 -29 34 -29 32 12 -49 36 -72 42 -93 45 -160 3 -50 -3 -111 -17 -178 -21 -103 -26 -198 -11 -243 4 -14 9 -20 10 -15 1 6 3 26 6 44 5 41 29 81 48 81 46 0 94 -87 76 -136 -13 -34 -38 -31 -32 4 2 18 -2 33 -13 42 -15 13 -20 11 -37 -10 -16 -19 -19 -34 -14 -66 5 -43 54 -164 65 -164 4 0 5 30 3 66 -5 82 13 109 21 31 9 -93 63 -167 150 -205 42 -18 32 2 -23 48 -54 45 -76 81 -105 168 -16 49 -16 55 -1 71 9 10 16 25 16 34 0 9 5 17 10 17 6 0 10 -5 10 -11 0 -15 97 -213 118 -238 67 -84 93 -112 140 -152 30 -24 64 -52 75 -62 27 -23 130 -84 215 -126 34 -17 62 -33 62 -35 0 -8 -130 6 -180 20 -192 54 -412 137 -420 159 -2 6 5 12 16 13 34 7 40 22 9 22 -17 0 -57 12 -90 26 -92 40 -98 40 -135 3 -18 -19 -49 -39 -69 -46 -20 -7 -47 -26 -61 -43 -14 -17 -51 -56 -82 -87 -63 -61 -66 -71 -43 -148 32 -106 99 -164 188 -165 79 0 157 60 157 122 0 38 8 36 140 -22 138 -62 250 -93 490 -137 101 -18 225 -13 350 15 108 24 312 82 325 92 6 4 23 10 38 14 16 4 52 18 80 31 65 32 73 31 81 -6 9 -47 67 -96 121 -105 118 -17 225 81 225 208 0 54 -1 56 -65 123 -36 37 -65 71 -65 76 0 4 -18 15 -40 25 -22 10 -40 21 -40 24 0 4 17 21 39 38 85 68 95 179 22 240 -15 13 -14 15 3 25 101 62 146 126 146 209 0 58 -28 142 -69 206 -133 209 -151 248 -141 300 9 40 -3 42 -20 3 -18 -46 6 -107 106 -264 59 -93 104 -200 104 -248 0 -29 -28 -90 -53 -117 -37 -40 -78 -56 -159 -62 -52 -4 -84 -12 -96 -23 -23 -21 -32 -21 -32 -3 0 8 12 24 26 35 26 20 26 21 10 55 -23 49 -20 78 13 110 29 27 83 38 110 21 18 -11 12 -54 -8 -65 -27 -14 -53 -2 -46 21 8 25 -16 25 -38 1 -39 -42 -3 -102 61 -102 80 0 142 68 142 156 0 53 -2 58 -102 244 -25 47 -49 100 -53 118 -6 31 -25 46 -25 20 0 -32 31 -120 64 -184 26 -51 36 -84 36 -117 0 -63 -16 -67 -23 -6 -4 28 -17 69 -31 92 -92 154 -117 222 -117 315 -1 101 51 184 122 199 69 14 81 123 14 123 -27 0 -87 -46 -108 -83 -36 -61 -153 -75 -270 -32 -42 15 -98 47 -144 82 -101 78 -130 96 -170 102 -39 7 -48 25 -15 29 29 4 94 -21 137 -53 39 -31 55 -32 29 -4 -60 67 -177 99 -224 61 -26 -21 -18 -56 12 -48 28 7 48 -3 48 -24 0 -40 -66 -31 -95 13 -36 55 12 107 100 107 60 0 97 -16 189 -85 42 -31 96 -65 119 -75 45 -21 97 -26 97 -10 0 6 -7 10 -15 10 -19 0 -105 29 -119 41 -40 32 -109 80 -151 105 -28 15 -51 31 -53 34 -5 11 -125 -1 -153 -15 -16 -9 -35 -28 -44 -45 -13 -26 -13 -32 3 -62 9 -18 22 -37 27 -41 6 -5 4 -6 -5 -3 -8 3 -22 8 -30 12 -15 5 -35 27 -95 102 -35 44 -38 56 -35 123 2 53 -26 140 -55 172 -14 15 -29 27 -32 27 -3 0 2 -8 11 -19z m479 -450 c40 -33 97 -74 127 -91 58 -31 49 -37 -30 -19 -25 6 -52 12 -60 14 -8 2 -40 13 -70 25 -30 12 -60 23 -65 24 -6 1 -28 12 -50 24 l-38 23 31 19 c19 12 32 28 32 40 0 17 4 18 25 10 13 -5 57 -36 98 -69z m-311 51 c5 -15 121 -89 180 -115 138 -63 282 -98 399 -98 126 0 122 9 116 -236 -3 -109 -10 -234 -16 -278 -44 -302 -189 -540 -420 -690 -94 -61 -240 -125 -284 -125 -105 0 -372 177 -481 319 -89 116 -171 315 -197 481 -6 36 -16 162 -23 280 -14 213 -13 215 7 233 12 10 29 16 39 14 9 -3 37 -1 60 5 38 8 45 7 60 -13 10 -11 18 -26 18 -33 0 -7 -3 -6 -9 2 -5 9 -24 12 -52 10 l-44 -3 42 -30 c29 -20 46 -41 53 -65 8 -31 113 -150 187 -214 22 -18 22 -18 20 10 -2 29 1 31 38 19 20 -7 20 -6 0 12 -12 10 -24 27 -29 38 -6 18 -9 17 -33 -13 l-25 -33 -18 28 c-10 15 -43 55 -74 88 -57 60 -66 87 -33 93 11 2 41 -22 83 -67 37 -39 71 -71 77 -71 6 0 1 10 -11 23 -24 26 -28 37 -11 37 5 0 7 -4 4 -10 -3 -5 -3 -10 2 -10 16 -1 99 -87 125 -130 32 -55 69 -91 75 -72 3 6 10 9 15 6 6 -4 41 -6 77 -5 l66 2 0 -195 c0 -150 -3 -196 -12 -196 -7 0 -13 5 -13 10 0 6 -7 10 -15 10 -22 0 -18 -16 8 -33 20 -13 24 -12 40 9 10 13 25 24 34 24 13 0 11 -6 -10 -28 -29 -30 -34 -47 -16 -58 18 -10 119 -13 119 -3 0 5 6 9 14 9 23 0 31 22 13 35 -18 13 -23 35 -8 35 5 0 14 -7 21 -16 23 -27 63 -13 83 29 10 20 22 37 25 37 4 0 7 30 7 68 0 47 -5 74 -17 91 -16 22 -16 25 0 47 9 13 21 24 26 24 5 0 1 9 -9 20 -18 19 -82 29 -71 11 7 -10 -24 -25 -33 -16 -3 3 0 14 6 23 11 18 57 22 103 8 21 -6 25 -4 26 16 1 13 5 49 9 81 6 44 5 57 -5 57 -13 0 -111 -57 -167 -97 -13 -8 -23 -11 -23 -6 0 6 -11 8 -25 5 -14 -2 -45 -1 -70 2 l-45 7 0 140 0 140 -67 -3 c-66 -3 -68 -2 -82 27 -16 33 -51 74 -51 59 0 -5 4 -16 9 -24 17 -26 -1 -32 -25 -9 -24 23 -29 44 -17 74 5 16 8 15 22 -3 l16 -21 70 33 c39 18 81 45 94 60 14 14 27 26 31 26 4 0 4 -49 2 -108 l-4 -108 72 -13 c152 -27 279 -123 343 -258 30 -64 32 -74 32 -183 0 -114 -1 -117 -37 -192 -53 -106 -138 -185 -239 -222 -41 -14 -94 -27 -119 -28 l-45 -3 -3 41 c-3 40 -2 41 38 53 47 14 53 31 11 31 -16 0 -36 6 -43 13 -8 9 -21 11 -33 6 -11 -4 -41 -8 -67 -8 -38 -1 -46 2 -42 14 5 11 2 13 -10 9 -18 -7 -22 16 -5 33 7 7 2 12 -18 17 -17 5 -29 3 -31 -3 -7 -21 -42 -11 -59 17 -10 15 -22 30 -27 33 -5 4 -6 11 -2 17 3 6 1 33 -5 60 -8 41 -7 56 5 80 11 22 12 32 3 41 -8 8 -7 11 5 11 9 0 18 -5 20 -12 3 -8 9 -8 23 -1 16 10 15 11 -12 17 -53 12 -49 66 5 66 13 0 20 4 17 10 -9 15 -36 12 -57 -7 -10 -9 -21 -13 -25 -9 -13 13 13 41 48 52 29 10 38 9 62 -8 51 -36 29 5 -27 49 -81 65 -86 65 -79 2 4 -38 3 -50 -5 -45 -7 4 -12 16 -12 26 0 16 -47 60 -65 60 -13 0 -44 -87 -55 -153 -38 -242 127 -468 375 -510 l65 -11 0 -104 0 -104 28 6 c41 9 207 94 250 128 90 71 213 242 260 363 19 48 44 163 57 255 12 94 23 303 18 336 -5 29 -9 34 -34 34 -67 0 -279 57 -380 102 -58 26 -69 35 -69 55 0 27 -39 67 -93 96 -34 19 -35 19 -76 -7 -23 -15 -78 -44 -123 -66 -62 -31 -84 -37 -90 -28 -13 21 -12 21 66 56 40 18 100 51 132 72 62 42 70 45 76 32z m902 -54 c8 -13 8 -23 0 -35 -12 -19 -91 -49 -102 -39 -3 4 2 21 12 39 33 58 67 71 90 35z m-839 -88 c3 -11 11 -20 16 -20 6 0 7 -5 4 -11 -8 -13 21 -46 56 -64 48 -26 205 -75 298 -94 52 -11 99 -25 105 -31 6 -6 11 -35 12 -65 1 -93 -31 -355 -53 -430 -15 -49 -81 -195 -93 -205 -4 -3 -15 -21 -26 -40 -46 -85 -188 -204 -302 -255 -50 -21 -62 -14 -62 41 0 41 18 61 61 67 20 3 71 21 114 41 91 42 181 128 226 217 34 69 39 90 46 197 9 143 -38 260 -149 373 -51 51 -170 114 -236 125 -23 3 -46 12 -51 18 -8 9 -15 110 -12 164 1 19 38 -3 46 -28z m698 -48 l-38 -51 -22 21 c-30 28 -29 34 5 46 15 5 38 19 52 30 42 34 44 8 3 -46z m-1070 3 c10 -14 13 -25 7 -25 -5 0 -10 5 -10 10 0 6 -9 10 -20 10 -17 0 -19 -4 -14 -27 4 -16 10 -30 13 -33 3 -3 12 -15 19 -28 17 -31 5 -48 -19 -26 -11 9 -21 15 -24 12 -2 -2 16 -24 42 -49 25 -24 43 -38 39 -31 -4 7 -1 12 8 12 16 0 66 -44 82 -72 23 -39 69 -88 83 -88 12 0 12 3 3 12 -17 17 -15 28 4 28 13 0 10 8 -12 37 -16 21 -36 45 -45 54 -9 9 -18 22 -21 29 -3 10 -9 10 -26 1 -18 -10 -26 -9 -46 6 -19 15 -48 53 -64 85 -2 3 6 9 18 13 16 5 30 -4 66 -42 25 -26 40 -38 34 -26 -7 16 -7 24 2 29 6 4 8 3 5 -3 -4 -6 -1 -13 7 -16 8 -3 37 -41 65 -84 46 -69 51 -83 49 -123 l-3 -45 -60 -3 c-59 -3 -61 -2 -79 30 -11 18 -24 36 -29 39 -6 4 -5 9 0 12 6 4 19 -2 29 -11 91 -84 106 -62 18 27 l-78 78 -28 -20 c-27 -20 -28 -20 -48 -2 -11 10 -20 24 -20 32 0 7 -7 16 -15 19 -17 7 -21 59 -5 69 15 9 12 18 -16 48 -21 23 -23 31 -14 42 7 8 19 15 26 15 8 0 14 7 14 15 0 24 43 17 63 -10z m-209 -11 c-13 -19 -19 -22 -25 -12 -13 20 -11 26 14 31 12 2 23 5 25 6 1 0 -5 -11 -14 -25z m75 7 c7 -5 10 -14 7 -20 -9 -14 -53 -15 -61 -1 -15 25 24 40 54 21z m-4 -83 c8 -18 26 -50 40 -70 39 -58 11 -55 -50 5 -61 61 -72 97 -30 97 18 0 29 -9 40 -32z m1208 -286 c3 -15 22 -53 43 -83 36 -52 57 -119 47 -146 -8 -21 -20 -15 -28 14 -3 14 -24 50 -45 80 -37 53 -61 137 -45 163 10 16 22 4 28 -28z m-463 4 c0 -12 -20 -76 -23 -76 -1 0 -20 6 -41 14 l-39 14 43 31 c47 34 60 38 60 17z m-667 -73 c28 -99 30 -125 19 -170 -27 -109 25 -240 103 -259 17 -3 41 -17 55 -29 14 -12 39 -27 57 -34 17 -7 40 -22 50 -33 18 -21 18 -21 -19 -15 -111 17 -225 105 -286 221 -25 47 -27 60 -27 166 0 111 12 170 34 170 5 0 12 -8 14 -17z m507 -42 c0 -11 10 -32 23 -47 20 -23 26 -25 44 -15 38 20 49 11 15 -10 l-33 -22 20 -21 c16 -17 21 -36 21 -82 0 -75 -20 -109 -60 -100 -23 4 -34 -2 -63 -34 -23 -26 -41 -38 -51 -34 -12 5 -13 10 -5 26 8 15 7 24 -5 37 -30 33 -20 47 33 48 56 1 94 23 112 67 12 26 10 31 -15 52 l-27 24 -47 -19 c-26 -10 -54 -21 -63 -25 -14 -6 -16 3 -18 64 -3 105 0 110 65 110 47 0 54 -3 54 -19z m614 -34 c13 -17 31 -45 40 -61 15 -29 14 -30 -24 -57 -45 -33 -55 -60 -47 -129 4 -34 1 -54 -9 -69 -14 -20 -14 -24 0 -46 16 -24 17 -24 58 -9 65 23 78 10 32 -31 -38 -33 -94 -48 -94 -24 0 8 -5 8 -15 -1 -23 -19 -18 -39 10 -46 34 -8 75 10 116 52 46 47 88 45 114 -7 31 -58 9 -122 -57 -172 -76 -57 -142 -57 -245 -1 -79 44 -107 44 -148 -1 -69 -73 -82 -171 -18 -135 34 19 44 45 14 35 -13 -4 -21 -2 -21 6 0 22 40 76 65 87 22 10 35 7 97 -24 63 -32 69 -37 52 -48 -38 -25 -126 -57 -143 -51 -10 3 -25 -3 -35 -14 -22 -25 -71 -45 -91 -37 -8 3 -15 15 -15 27 0 43 44 143 80 181 31 32 43 38 79 38 23 0 58 -7 78 -15 51 -21 136 -19 182 5 64 32 109 106 82 133 -10 9 -23 0 -59 -41 -43 -48 -51 -52 -90 -52 -79 0 -122 58 -70 94 15 11 17 16 8 16 -39 -1 -65 -47 -48 -84 6 -14 15 -26 20 -26 4 0 8 -4 8 -8 0 -7 -72 2 -117 14 -8 2 2 28 28 74 74 131 118 262 134 403 3 31 10 57 15 57 5 0 20 -15 34 -33z m204 -111 c4 -50 2 -56 -29 -90 -25 -26 -45 -37 -73 -40 -39 -5 -43 5 -4 11 41 6 60 34 55 78 -5 44 22 120 37 105 5 -5 11 -34 14 -64z m-1713 34 c8 -13 -14 -42 -26 -34 -5 3 -9 14 -9 25 0 20 24 26 35 9z m-50 -25 c0 -11 -7 -21 -16 -23 -18 -3 -33 23 -23 39 10 17 39 5 39 -16z m975 -24 c0 -26 -39 -53 -84 -58 -46 -6 -48 -5 -38 14 6 11 18 25 26 33 14 11 16 9 16 -9 0 -29 18 -26 26 4 4 18 13 25 30 25 13 0 24 -4 24 -9z m-180 -277 c0 -11 -9 -14 -37 -12 -52 4 -56 28 -4 28 30 0 41 -4 41 -16z m379 -310 c-6 -19 -7 -48 -4 -64 6 -27 4 -29 -47 -43 -96 -28 -236 -52 -278 -48 -8 1 39 28 105 60 66 32 140 75 165 94 59 47 71 47 59 1z m-1118 7 c30 -11 97 -38 149 -61 129 -56 326 -118 435 -136 195 -34 496 24 765 146 145 66 189 74 276 50 37 -11 49 -20 62 -49 10 -20 20 -37 24 -39 4 -2 4 -11 1 -20 -4 -14 -3 -14 5 -3 18 25 69 -21 74 -66 14 -114 -66 -201 -174 -191 -28 3 -57 13 -69 24 -62 56 -32 128 46 108 20 -5 25 -11 22 -26 -5 -16 -1 -19 26 -16 72 7 24 88 -52 88 -20 0 -63 -12 -96 -26 -230 -97 -365 -140 -555 -180 -106 -22 -141 -25 -230 -20 -204 11 -430 71 -660 176 -84 38 -128 53 -162 53 -57 1 -91 -24 -86 -62 3 -22 9 -26 38 -28 19 -1 29 0 23 3 -7 3 -13 12 -13 19 0 13 45 12 88 -1 21 -6 13 -50 -14 -78 -49 -48 -126 -53 -189 -12 -26 17 -70 103 -79 153 -5 31 -2 35 54 73 44 30 59 47 62 67 2 23 12 32 58 50 68 28 102 28 171 4z"/> <path d="M1621 2246 c2 -2 22 -14 44 -26 105 -59 335 -120 450 -120 l58 0 -7 -177 c-15 -372 -61 -547 -195 -747 -81 -120 -173 -196 -326 -271 -73 -36 -137 -65 -144 -65 -6 0 -11 16 -11 39 0 38 -1 39 -57 59 -134 49 -337 209 -402 316 -92 153 -141 365 -141 614 0 77 3 102 13 102 16 0 77 -62 77 -78 0 -7 9 -12 20 -12 11 0 26 -12 34 -29 9 -16 25 -31 37 -34 20 -5 19 -3 -7 25 -16 17 -49 49 -72 72 -77 72 -83 80 -113 138 -21 41 -33 56 -44 52 -12 -5 -15 -27 -15 -108 0 -276 50 -547 130 -706 45 -89 143 -214 216 -274 64 -53 309 -186 343 -186 28 0 203 84 270 129 140 95 257 246 322 416 48 122 76 299 85 521 l7 191 -24 17 c-14 9 -43 16 -70 16 -109 0 -323 56 -435 115 -27 14 -53 21 -43 11z"/> <path d="M1227 1640 c-4 -16 0 -20 20 -20 18 0 24 5 21 17 -5 26 -34 28 -41 3z"/> <path d="M1315 1500 c17 -32 44 -43 95 -38 l32 3 -22 28 c-12 15 -25 27 -30 27 -5 0 -10 -12 -13 -27 l-3 -28 -13 33 c-10 24 -19 32 -37 32 -24 0 -24 -1 -9 -30z"/> <path d="M682 922 c-13 -9 -12 -45 1 -59 4 -4 10 3 14 15 3 12 10 22 15 22 12 0 2 -35 -23 -78 -23 -41 -23 -42 -1 -42 18 0 42 53 42 94 0 9 7 16 16 16 13 0 14 -3 5 -13 -14 -18 -2 -30 16 -16 10 9 13 8 13 -5 0 -9 -7 -16 -16 -16 -10 0 -14 -5 -10 -16 3 -8 -2 -26 -10 -40 -9 -13 -15 -27 -12 -29 8 -8 48 26 48 41 0 8 9 14 20 14 24 0 25 -6 5 -43 -13 -26 -13 -28 2 -25 28 5 60 128 33 128 -5 0 -10 -12 -10 -26 0 -16 -5 -24 -12 -21 -7 2 -13 17 -13 33 -1 16 -6 29 -13 29 -7 0 -16 5 -20 11 -4 6 -16 13 -27 16 -11 3 -27 8 -35 12 -8 3 -21 2 -28 -2z"/> <path d="M2200 900 c-12 -7 -12 -12 3 -28 28 -30 41 -80 27 -97 -10 -12 -10 -15 0 -15 23 0 80 50 80 70 0 30 -86 85 -110 70z m80 -75 c0 -26 -20 -26 -30 0 -14 36 -13 37 10 25 11 -6 20 -17 20 -25z"/> <path d="M867 830 c3 -20 1 -30 -6 -30 -7 0 -9 -4 -6 -10 3 -5 -1 -23 -10 -39 -8 -16 -11 -32 -7 -35 10 -6 102 16 102 25 0 14 -32 19 -52 8 -17 -9 -19 -8 -16 8 2 11 12 18 27 18 14 0 26 6 29 14 3 9 -2 11 -17 6 -16 -5 -21 -2 -21 10 0 13 6 16 21 12 11 -3 28 -3 36 0 10 4 -2 12 -33 25 -27 10 -50 18 -51 18 -1 0 0 -13 4 -30z"/> <path d="M2100 857 c0 -1 9 -20 20 -42 11 -22 20 -52 20 -68 0 -24 3 -28 18 -22 9 4 27 10 40 12 26 6 26 6 6 45 -10 20 -19 27 -26 20 -7 -7 -6 -16 1 -30 8 -15 7 -21 -3 -25 -11 -4 -16 6 -21 36 -9 53 -22 77 -40 77 -8 0 -15 -1 -15 -3z"/> <path d="M2070 825 c0 -8 4 -15 9 -15 5 0 8 -6 8 -12 -2 -23 24 -98 33 -98 12 0 2 53 -19 103 -16 38 -31 49 -31 22z"/> <path d="M2025 803 c22 -51 29 -93 17 -105 -9 -9 -15 -3 -27 25 -8 20 -15 48 -15 63 0 16 -5 24 -12 21 -16 -5 -13 -57 7 -103 11 -26 20 -34 39 -34 16 0 27 7 31 20 8 26 -5 113 -19 122 -19 13 -28 9 -21 -9z"/> <path d="M2478 750 c-3 -40 -11 -66 -24 -81 -41 -45 -94 -45 -119 0 -13 24 -14 24 -15 5 0 -28 20 -44 64 -51 32 -5 40 -2 71 31 32 34 35 43 35 97 0 32 -2 59 -4 59 -2 0 -6 -27 -8 -60z"/> <path d="M1036 784 c-9 -8 -16 -20 -16 -25 0 -5 -12 -6 -26 -3 -25 6 -25 5 -14 -16 10 -19 8 -25 -11 -46 -13 -14 -17 -24 -10 -24 22 0 51 20 51 35 0 8 5 15 10 15 6 0 10 -9 10 -19 0 -11 5 -23 11 -26 6 -4 8 -13 5 -21 -4 -9 2 -14 17 -14 12 0 31 -6 42 -14 11 -7 32 -16 47 -19 14 -4 33 -10 42 -13 13 -5 16 1 16 30 0 26 -4 36 -16 36 -11 0 -15 -6 -11 -20 4 -15 0 -20 -14 -20 -19 0 -19 1 1 41 21 41 24 85 5 83 -5 0 -13 -21 -17 -47 -3 -25 -11 -54 -17 -64 -9 -15 -10 -12 -11 20 0 26 -4 37 -15 37 -8 0 -15 -9 -15 -20 0 -11 -7 -20 -15 -20 -19 0 -19 1 6 54 12 24 19 51 16 60 -12 30 -24 16 -31 -34 -10 -73 -28 -64 -21 10 4 33 4 60 1 60 -2 0 -12 -7 -20 -16z"/> <path d="M1883 769 c-33 -34 -1 -129 43 -129 25 0 32 7 44 49 8 28 7 29 -26 28 -38 -1 -45 -14 -13 -25 18 -7 19 -10 6 -21 -13 -10 -18 -8 -32 13 -23 35 -16 62 17 58 16 -1 28 3 32 13 3 8 0 15 -7 15 -7 0 -21 3 -32 6 -11 3 -26 -1 -32 -7z"/> <path d="M505 707 c5 -49 18 -64 64 -78 48 -14 91 1 90 33 l0 23 -9 -22 c-8 -18 -17 -23 -49 -23 -47 0 -76 22 -90 70 l-11 35 5 -38z"/> <path d="M1736 724 c-3 -9 -6 -29 -6 -45 0 -26 2 -28 25 -19 20 8 27 6 36 -11 8 -15 8 -24 0 -32 -7 -7 -12 -5 -17 6 -7 20 -34 23 -34 4 0 -19 21 -37 42 -37 24 0 42 41 34 75 -6 23 -10 26 -36 20 -24 -5 -30 -3 -30 9 0 12 6 15 25 10 29 -7 33 3 8 22 -24 18 -40 17 -47 -2z"/> <path d="M1239 717 c9 -11 10 -21 2 -35 -6 -11 -8 -22 -4 -25 3 -3 1 -20 -5 -36 -14 -39 -2 -45 45 -24 49 23 48 22 36 34 -8 8 -17 8 -32 0 -17 -10 -21 -9 -21 3 0 8 10 16 22 18 12 2 23 8 25 15 3 7 -3 9 -16 6 -14 -4 -21 -1 -21 10 0 10 9 14 32 12 42 -3 62 -41 53 -102 -6 -43 -6 -44 15 -31 15 9 19 19 15 36 -4 17 2 34 20 58 24 31 24 34 7 34 -10 0 -24 -10 -30 -22 -11 -23 -11 -23 -11 -2 -1 29 -35 49 -95 58 -44 7 -48 6 -37 -7z"/> <path d="M1647 713 c-33 -5 -45 -27 -27 -48 18 -21 32 -18 25 5 -7 24 10 27 19 4 3 -9 6 -35 6 -60 0 -36 3 -42 16 -37 12 4 14 14 10 34 -9 41 -14 86 -9 71 7 -19 28 -9 28 14 0 20 -18 25 -68 17z"/> <path d="M1564 685 c-3 -8 -3 -19 1 -25 4 -7 -2 -14 -14 -17 -25 -6 -26 -12 -5 -27 12 -9 13 -17 5 -39 -6 -15 -7 -27 -3 -27 16 0 32 24 32 47 0 13 5 23 10 23 6 0 10 -6 10 -14 0 -14 24 -29 32 -20 7 6 -45 113 -55 113 -4 1 -10 -6 -13 -14z"/> <path d="M1446 674 c-14 -36 -6 -101 14 -119 19 -17 21 -17 40 0 11 10 20 25 20 34 0 12 -5 10 -19 -8 l-19 -24 -11 22 c-12 22 -6 81 8 81 4 0 12 -5 18 -11 7 -7 20 -9 30 -5 16 7 16 9 -7 26 -30 24 -66 26 -74 4z"/> <path d="M1299 2708 c0 -24 -6 -72 -13 -108 -11 -62 -13 -65 -43 -68 -17 -2 -37 -10 -43 -17 -10 -13 -8 -13 19 -4 23 8 37 8 59 -3 l28 -14 1 60 c0 34 4 89 8 122 5 42 4 64 -4 68 -7 5 -11 -7 -12 -36z"/> <path d="M1610 2582 c-53 -23 -100 -84 -99 -126 l1 -31 8 28 c13 42 55 92 89 107 27 11 35 9 77 -14 26 -14 49 -26 52 -26 15 0 -37 44 -67 56 -37 15 -39 16 -61 6z"/> <path d="M717 2310 c10 -36 54 -56 118 -51 15 1 11 6 -15 18 -19 9 -43 17 -52 18 -10 1 -26 10 -37 19 -19 17 -19 17 -14 -4z"/> <path d="M2088 2278 c-42 -14 -34 -25 29 -36 62 -11 113 -1 134 25 13 15 11 16 -11 9 -54 -17 -103 -19 -114 -4 -8 11 -18 12 -38 6z"/> <path d="M2363 2168 c-24 -26 -41 -82 -35 -117 l4 -23 16 23 c9 13 15 34 13 47 -1 12 7 38 18 57 23 40 15 46 -16 13z"/> <path d="M577 1958 c5 -57 3 -68 -10 -68 -14 0 -14 -3 0 -31 12 -23 18 -28 24 -18 13 21 10 120 -6 154 -12 28 -13 25 -8 -37z"/> <path d="M541 1790 c2 -104 -9 -157 -34 -165 -12 -4 -31 -6 -42 -5 -20 2 -20 2 0 -13 18 -14 18 -16 3 -22 -9 -4 -21 -5 -25 -2 -4 3 -8 -11 -8 -31 0 -33 5 -39 38 -56 21 -10 37 -20 35 -22 -2 -1 -19 -6 -38 -9 -71 -12 -121 -67 -102 -110 7 -14 19 -25 28 -25 20 0 104 -47 104 -59 0 -4 8 -16 18 -27 9 -11 39 -48 65 -82 44 -59 47 -65 38 -97 -6 -21 -6 -37 0 -41 5 -3 9 0 9 6 0 6 11 22 25 35 l26 23 -85 109 c-95 122 -135 156 -183 157 -42 1 -42 16 2 55 30 26 44 31 85 31 63 0 73 -16 14 -23 -25 -2 -47 -7 -51 -10 -3 -3 12 -21 32 -39 21 -18 56 -57 78 -88 117 -159 216 -252 283 -265 35 -7 108 9 84 18 -8 4 -41 16 -74 28 -67 24 -126 73 -161 134 -14 22 -40 89 -60 149 -40 122 -45 196 -20 311 15 71 20 184 8 172 -3 -4 -10 -31 -14 -60 -5 -28 -15 -90 -24 -137 -14 -76 -14 -93 0 -165 8 -44 26 -115 39 -157 13 -43 22 -78 20 -78 -3 0 -14 21 -25 48 -70 163 -89 274 -69 419 11 88 11 102 -3 129 l-17 29 1 -65z m-11 -200 c0 -13 -7 -20 -20 -20 -13 0 -20 7 -20 20 0 13 7 20 20 20 13 0 20 -7 20 -20z m-43 -46 c1 -5 -2 -16 -7 -24 -12 -20 -35 2 -26 25 6 17 27 16 33 -1z m53 -29 c0 -25 -23 -35 -35 -15 -10 16 2 40 20 40 9 0 15 -9 15 -25z"/> </g> </svg> 